<svg width="187" height="172" viewBox="0 0 187 172" fill="none" xmlns="http://www.w3.org/2000/svg">
<g id="Group">
<path id="Vector" d="M56.1099 28.1195C51.7761 23.8689 46.3913 21.9242 40.5024 21.1323C38.7102 20.8885 36.919 20.815 35.1059 20.6565C34.9509 19.7634 35.5047 19.696 36.123 19.7132C39.7476 19.7961 43.3727 19.9641 46.9965 19.9192C49.1921 19.9049 51.4512 19.805 53.5795 19.2803C56.8359 18.4714 58.3703 15.1193 57.1347 11.9767C56.1373 9.40738 54.0616 8.1862 51.4595 7.99026C47.8124 7.71598 44.1665 7.63327 40.4987 7.46556C40.1149 7.44677 39.7311 7.42798 39.3474 7.43048C39.2773 6.49428 39.2934 5.68524 39.1391 4.91988C38.6549 2.58138 37.195 0.994302 34.9311 0.349119C32.3682 -0.379268 29.9404 -0.00157104 27.863 1.80013C26.3156 3.15133 25.6666 4.96501 25.1888 6.88402C25.0225 7.54503 24.6832 7.82398 24.0011 7.82842C22.5943 7.85886 21.1877 7.9106 19.7816 8.04748C16.5432 8.3453 13.2829 8.53683 10.0891 9.13239C7.15093 9.705 5.37638 12.1859 5.33058 14.9749C5.28534 17.8491 6.9622 20.0095 9.97384 20.9053C11.9603 21.5097 14.0069 21.5177 16.0522 21.334C17.65 21.1746 19.2264 20.9941 20.9732 20.8124C20.8095 21.8565 20.7075 22.5597 19.6437 22.8859C12.5586 24.997 7.2787 29.3315 4.10336 36.0365C1.1171 42.3146 0.371745 48.9825 0.885479 55.8551C1.04939 58.1105 1.49 60.3003 2.63282 62.2939C4.46569 65.4964 8.35562 67.0464 12.0158 66.0433C15.5056 65.084 17.5973 62.1965 17.4655 58.323C17.4144 57.0248 17.1077 55.7495 16.9287 54.4521C16.526 51.5383 15.8675 48.6262 15.8059 45.7101C15.7136 41.368 17.3092 37.5897 20.7227 34.7149C21.168 34.3501 21.6563 34.0489 22.1445 33.7264L22.3585 33.8528C21.43 35.3064 21.5675 36.7743 22.1529 38.282C21.8977 38.3901 21.7278 38.4763 21.5578 38.5626C19.4949 39.3211 18.3748 40.8185 18.4514 42.7552C18.5282 44.7345 19.6677 46.2172 21.8239 46.6928C23.2116 47.003 24.6822 46.9509 26.1111 47.048C26.4523 47.0671 26.7932 47.0436 27.1769 47.0411C27.2468 47.956 26.7351 47.9381 26.2238 47.984C24.4556 48.1658 22.6652 48.22 20.9625 48.6356C18.7703 49.182 17.6512 50.8285 17.7287 52.9142C17.7838 54.8297 19.0511 56.2903 21.2285 56.7445C22.5093 57.0129 23.8102 57.0896 25.1111 57.1662C26.6038 57.2417 26.5822 57.1992 26.6341 58.6252C26.6596 59.2636 26.6851 59.9021 26.7957 60.5187C27.3263 63.4317 29.6198 65.354 32.4976 65.3352C35.3327 65.3168 37.4099 63.4725 37.9021 60.489C38.0457 59.6366 38.0399 58.7425 37.9704 57.8915C37.9228 57.1254 38.1771 56.8896 38.923 56.8634C40.0314 56.8349 41.1393 56.7426 42.2256 56.6078C43.6101 56.4285 44.951 56.1004 45.9461 55.0508C47.1107 53.8298 47.3566 52.3168 46.8987 50.7445C46.3969 48.9809 45.0901 47.9889 43.3615 47.7021C41.8463 47.4565 40.2906 47.5305 38.7549 47.4128C38.2857 47.3732 37.8365 47.142 37.3879 46.9959C37.8346 46.844 38.2808 46.6282 38.7494 46.5613C40.4531 46.2947 42.2438 46.3044 43.8819 45.7828C45.6264 45.2393 46.3625 43.7017 46.3295 41.8925C46.2965 40.1045 45.393 38.8544 43.7683 38.1625C43.3194 37.9739 42.8494 37.8066 42.3578 37.6182C43.1741 35.2925 42.9482 33.3355 40.5948 32.0523C40.9577 32.1138 41.2781 32.2182 41.5774 32.3439C45.9815 34.295 48.5403 37.6631 49.2746 42.4055C50.1866 48.2324 48.984 53.4345 44.6846 57.7413C43.8373 58.577 43.1405 59.6034 42.5504 60.6503C40.7806 63.855 41.4875 67.6609 44.2531 70.0484C47.7906 73.1334 53.8443 73.0514 57.4262 69.8562C59.5669 67.9477 60.8726 65.4911 61.7721 62.8456C64.1987 55.7409 64.5778 48.4793 63.0378 41.1451C61.9395 36.1709 59.8001 31.7357 56.1099 28.1195ZM39.6773 31.9093C36.4149 31.8028 34.6371 33.7728 33.2684 36.3788C33.1 36.7205 32.847 37.1479 32.5278 37.2352C31.8897 37.4522 31.2714 37.4349 30.9246 36.5644C30.3394 35.0781 29.4991 33.7211 28.0234 32.9857C27.2748 32.6074 26.4209 32.4213 25.3955 32.0874C30.2664 30.4165 34.9983 30.3219 39.8036 31.6743C39.7192 31.8026 39.6986 31.9091 39.6773 31.9093ZM56.308 124.041C53.96 123.567 51.9188 124.389 49.9012 125.551C48.7544 126.219 47.5002 126.759 46.2229 127.044C44.9031 127.33 44.0665 126.526 43.8871 125.165C43.8195 124.612 43.7943 124.016 43.9186 123.462C44.2292 122.055 44.732 120.689 44.9786 119.282C45.2661 117.599 46.2442 117.209 47.7994 117.05C49.7381 116.867 51.7395 116.492 53.5472 115.821C55.6737 115.019 56.5568 113.14 56.5851 110.926C56.5918 108.691 55.6209 106.909 53.5262 106.05C52.2437 105.526 50.8347 105.216 49.4484 105.118C45.9934 104.885 42.5395 104.823 39.0853 104.717C37.678 104.663 37.6568 104.684 37.9038 103.32C38.7683 98.5885 39.2489 93.8169 38.8979 89.0294C38.781 87.4336 38.3225 85.7761 37.6948 84.3114C36.2882 81.1061 32.8887 79.5742 29.505 80.469C26.0362 81.3857 24.3043 83.8664 23.7506 87.2334C23.0117 91.6235 23.5091 95.9843 24.0918 100.344C24.2705 101.599 24.513 102.832 24.7348 104.151C24.1805 104.154 23.7543 104.178 23.3278 104.16C19.8734 104.012 16.4184 103.779 12.9649 103.78C11.622 103.789 10.1957 104.096 8.98406 104.637C4.77522 106.495 3.96232 112.61 7.41402 115.61C9.12908 117.089 11.221 117.522 13.3545 117.785C14.656 117.947 15.9994 118.002 17.6631 118.14C16.5436 119.744 15.6789 121.176 14.6427 122.46C12.5704 125.049 9.70207 126.516 6.70443 127.77C4.45093 128.721 2.45559 130.033 1.19099 132.255C-1.59083 137.19 0.683891 142.774 6.10809 144.229C8.35038 144.832 10.5874 144.626 12.7356 143.867C17.8828 142.066 21.3975 138.382 24.1394 133.851C26.86 129.342 28.3414 124.393 29.2671 119.236C29.3289 118.916 29.6239 118.382 29.8371 118.38C31.0516 118.287 32.2883 118.322 33.546 118.314C33.5468 118.441 33.5688 118.548 33.548 118.633C33.4224 118.974 33.2754 119.316 33.1497 119.657C31.9118 122.71 31.2075 125.865 31.4422 129.163C31.7496 133.823 33.6927 137.578 37.8012 139.957C43.6216 143.325 49.6977 143.413 55.7772 140.734C59.0932 139.265 61.2294 136.675 61.9305 133.03C62.734 128.746 60.2997 124.845 56.308 124.041ZM184.295 119.951C181.226 110.242 174.45 104.241 164.375 102.199C159.722 101.25 155.054 101.365 150.368 101.949C145.618 102.534 146.705 102.527 146.615 98.525C146.585 97.2054 147.159 96.9675 148.311 97.0877C150.487 97.329 152.641 97.5278 154.817 97.6627C160.575 98.0084 166.355 98.4391 172.059 97.0395C177.188 95.7714 180.485 91.4073 180.175 86.4067C179.842 81.1082 176.451 77.5113 170.989 76.8444C169.218 76.6218 167.385 76.6124 165.617 76.8155C162.634 77.133 159.696 77.6843 156.736 78.1932C153.904 78.6587 151.072 79.188 147.921 79.7407C147.912 78.3571 148.011 77.2494 147.876 76.1859C147.606 73.9312 147.505 71.5902 146.809 69.4447C144.742 63.0505 137.395 60.9695 132.093 65.1552C129.951 66.8509 128.623 69.2012 128.171 71.7799C127.082 77.9392 125.97 84.0986 125.478 90.3178C125.046 95.9832 125.105 101.752 125.547 107.411C125.965 112.731 128.827 116.821 133.936 118.959C136.95 120.238 140.17 120.451 143.409 120.217C146.35 120.006 149.267 119.583 152.209 119.5C154.361 119.443 156.6 119.514 158.692 119.99C163.496 121.065 166.182 124.305 166.555 129.199C167.068 135.922 164.242 143.924 153.864 144.502C152.819 144.551 151.775 144.516 150.774 144.692C148.368 145.113 145.875 145.342 143.599 146.165C137.028 148.571 133.578 155.725 135.774 162.246C137.491 167.344 141.452 169.937 146.427 171.181C156.271 173.651 172.284 171.034 180.61 156.398C187.143 144.86 188.278 132.548 184.295 119.951ZM69.888 22.6014C71.6985 22.3768 73.4202 21.5992 75.1863 21.0981C76.5056 20.7276 77.8246 20.3145 79.1661 20.0716C79.6558 19.9833 80.5522 20.1478 80.6822 20.4662C80.8984 20.9332 80.7755 21.7003 80.523 22.2129C80.0179 23.2167 79.2991 24.1367 78.7086 25.1198C77.5276 27.086 77.5191 29.0445 78.8745 30.9516C79.3047 31.5449 79.7349 32.1381 80.1015 32.7744C80.4248 33.3257 80.727 33.8985 80.9014 34.4935C81.2512 35.8323 80.5972 36.8797 79.278 37.2714C78.6398 37.4672 78.2768 37.3844 78.2078 36.5972C78.0691 34.9376 77.9302 33.2568 77.6423 31.5982C77.3321 29.7908 77.1067 27.919 76.4562 26.2415C75.1773 22.9928 70.8038 22.4677 68.7759 25.3335C68.0366 26.3814 67.4485 27.7264 67.2862 29.0047C66.6774 33.7133 66.2605 38.4419 65.8607 42.5317C66.1665 46.9363 66.3612 50.6391 66.6837 54.3411C66.8913 56.7452 67.184 59.1488 68.2856 61.3556C69.8622 64.4959 73.5393 66.0899 77.0724 65.2153C80.1158 64.4505 82.0599 61.8194 81.8658 58.2017C81.721 55.6056 81.1927 53.0332 80.7284 50.4817C80.5955 49.7162 80.6149 49.418 81.5098 49.3484C87.3484 48.9697 91.3292 44.8353 91.6535 38.979C91.8239 35.6783 90.9517 32.6824 89.3345 29.8617C88.8385 28.9921 88.8551 28.2682 89.3613 27.4347C89.8887 26.5798 90.3518 25.6827 90.7937 24.7857C92.2032 21.9027 93.1216 18.8951 92.3971 15.6641C91.3218 10.9452 88.1068 8.28388 83.6644 7.01425C78.688 5.57779 73.767 6.09944 68.9387 7.77003C67.0032 8.44256 65.2404 9.45456 64.0576 11.144C62.2623 13.7102 61.982 16.5007 63.4711 19.301C64.788 21.8257 67.0977 22.9602 69.888 22.6014ZM93.5559 46.3109C95.0607 51.5166 98.4939 54.9429 103.748 56.5053C106.397 57.297 109.084 57.4711 111.811 57.1979C118.884 56.4706 123.548 52.5872 125.529 45.7622C126.509 42.3498 126.763 38.8569 126.808 35.9828C126.759 31.6617 126.352 28.0454 125.284 24.5186C123.846 19.8021 121.179 16.1154 116.498 14.1448C113.826 13.0339 110.988 12.7118 108.112 12.9008C101.058 13.3512 95.8184 17.281 93.7732 24.0212C91.5189 31.4015 91.4185 38.8954 93.5559 46.3109ZM110.907 29.7212C110.288 29.5975 109.648 29.5166 109.009 29.542C107.602 29.5937 106.196 29.7306 104.79 29.8462C104.406 29.87 104.002 29.9365 103.533 29.9821C103.387 27.2157 105.522 24.3918 107.991 23.8648C110.993 23.2279 113.431 24.4254 114.43 27.2928C116.038 31.9018 116.196 36.6479 114.841 41.34C113.59 45.6696 108.292 47.1942 105.161 44.3195C103.874 43.1357 103.417 41.606 103.192 39.7767C103.852 39.7724 104.407 39.7901 104.961 39.7652C107.007 39.6242 109.053 39.6321 111.055 39.2785C113.567 38.8364 115.152 36.7399 115.074 34.4413C115.015 31.9936 113.426 30.1945 110.907 29.7212ZM123.403 108.788C122.785 105.684 122.083 102.602 119.85 100.147C118.111 98.221 115.973 97.3621 113.397 97.8898C110.864 98.3959 109.233 100.024 108.503 102.413C108.106 103.693 107.923 105.078 107.868 106.42C107.758 109.145 107.861 111.869 107.772 114.573C107.717 116.085 107.621 117.64 107.247 119.09C106.976 120.05 106.171 120.864 105.601 121.762C105.43 121.677 105.28 121.572 105.109 121.488C105.086 121.19 105.02 120.871 105.061 120.594C106.215 111.305 106.07 102.025 104.73 92.752C104.284 89.6256 103.73 86.4999 101.752 83.8731C98.4618 79.4879 92.0019 79.4022 88.9192 83.9566C87.7156 85.7313 86.856 87.9509 86.4862 90.082C84.8206 99.4808 85.202 108.951 86.1802 118.397C86.3849 120.375 86.7601 122.331 87.0947 124.607C84.7018 123.792 83.838 122.095 83.6338 120.202C83.3168 117.351 83.3406 114.456 83.1727 111.583C83.0304 109.37 82.973 107.114 82.5326 104.945C81.9599 102.118 80.1991 100.171 77.2535 99.5939C74.3294 99.0382 71.9487 100.097 70.2155 102.386C69.2646 103.669 68.4857 105.186 67.9839 106.701C66.2069 112.077 65.4117 117.638 65.8748 123.276C66.8477 135.191 73.5026 142.322 85.3457 144.118C91.7261 145.098 97.9669 144.27 103.942 141.868C105.132 141.392 105.858 141.557 106.802 142.424C110.984 146.271 116.969 145.551 120.072 140.784C121.148 139.116 121.989 137.216 122.509 135.297C124.904 126.553 125.166 117.696 123.403 108.788ZM157.076 140.181C161.164 139.494 163.659 136.221 163.739 132.24C163.843 128.471 161.261 124.826 157.418 123.936C155.176 123.397 152.766 123.2 150.464 123.364C145.479 123.737 140.494 124.366 135.553 125.058C132.976 125.415 130.378 125.922 127.954 126.789C125.21 127.765 123.797 130.094 123.667 132.99C123.516 135.993 124.916 138.262 127.653 139.542C128.915 140.13 130.325 140.589 131.69 140.708C135.593 141.087 139.496 141.275 143.804 141.545C148.001 141.155 152.583 140.934 157.076 140.181ZM56.8897 92.2332C56.8343 86.9968 52.1455 83.898 47.298 85.888C43.3223 87.5318 39.9468 92.9608 40.1675 97.3872C40.3383 100.707 42.6767 102.97 46.0241 103.054C51.5675 103.167 56.9472 97.7889 56.8897 92.2332ZM17.0488 102.37C20.3082 102.03 22.3616 99.8235 22.3411 96.6731C22.3156 92.7563 18.4057 88.141 14.1349 87.0193C9.30865 85.7309 5.07188 89.8457 6.21195 94.6919C7.22011 98.9216 12.7029 102.824 17.0488 102.37Z" fill="#72BD5D"/>
</g>
</svg>
