<svg width="176" height="166" viewBox="0 0 176 166" fill="none" xmlns="http://www.w3.org/2000/svg">
<g id="Group">
<path id="Vector" d="M45.8754 33.7002C47.6155 35.6693 48.7617 38.1108 49.2073 41.0466C50.231 47.62 48.5608 53.125 44.2599 57.4333C43.582 58.1191 42.9266 58.9965 42.3365 60.0651C40.8399 62.758 41.415 65.9272 43.7741 67.9774C43.86 68.062 43.9883 68.1251 44.074 68.1884C42.5257 66.1968 42.2739 63.5578 43.5599 61.2709C44.15 60.2023 44.8052 59.3037 45.4833 58.6391C49.7842 54.3308 51.4544 48.8259 50.4306 42.2524C49.8742 38.6785 48.3203 35.8351 45.8754 33.7002Z" fill="#EBE300"/>
<path id="Vector_2" d="M66.6652 53.0283C66.8722 55.3481 67.1426 57.5823 68.158 59.5988C68.5902 60.469 69.2346 61.1889 69.9847 61.7589C69.7482 61.4624 69.5542 61.1442 69.3814 60.8046C68.366 58.7882 68.0956 56.554 67.8885 54.2342C67.6587 51.6803 67.5141 49.1258 67.3253 46.3374L67.0654 42.4422L67.3859 39.2671C67.7058 35.9856 68.0249 32.5977 68.4717 29.1663C68.6143 28.1432 69.076 26.9903 69.7522 26.0489C70.3651 25.1931 71.3002 24.6972 72.3451 24.6904C72.8142 24.6874 73.3481 24.8117 73.8402 25.064C73.1932 23.9396 72.0599 23.4785 71.1217 23.4846C70.0768 23.4914 69.1417 23.9872 68.5289 24.843C67.8526 25.7844 67.391 26.9373 67.2483 27.9604C66.8015 31.3918 66.4824 34.7798 66.1626 38.0613L65.842 41.2363L66.102 45.1316C66.2694 47.9201 66.4353 50.4744 66.6652 53.0283Z" fill="#EBE300"/>
<path id="Vector_3" d="M97.618 51.3361C96.329 49.8752 95.3364 48.0929 94.7255 45.9673C92.6531 38.8257 92.7338 31.5636 94.926 24.3517C96.805 18.1639 101.515 14.5131 108.187 14.0651C108.635 14.0409 109.061 14.0168 109.509 14.0139C111.94 13.9981 114.075 14.3888 116.042 15.2065C117.389 15.7727 118.567 16.5103 119.618 17.4192C118.307 15.937 116.722 14.7974 114.819 14.0006C112.852 13.1829 110.717 12.7922 108.286 12.808C107.838 12.811 107.411 12.835 106.964 12.8592C100.292 13.286 95.5814 16.9368 93.7026 23.1458C91.5103 30.3365 91.4511 37.6197 93.5021 44.7615C94.309 47.5033 95.688 49.6877 97.618 51.3361Z" fill="#EBE300"/>
<path id="Vector_4" d="M30.1633 80.2255C29.6301 80.2289 29.1188 80.2962 28.5865 80.4274C25.8403 81.148 24.2533 83.0536 23.7195 86.23C23.0218 90.4296 23.4759 94.6644 24.0585 98.9834C24.1705 99.8132 24.3253 100.664 24.4801 101.515L24.7014 102.748C24.7676 103.089 24.6633 103.451 24.4306 103.73C24.1978 104.008 23.8576 104.159 23.5164 104.162L23.0046 104.165C23.0046 104.165 22.2156 104.17 22.045 104.171C21.0212 104.135 19.9759 104.078 18.9519 104.021C16.5841 103.909 14.1309 103.776 11.6786 103.792C10.5485 103.799 9.29199 104.063 8.22884 104.538C6.67662 105.23 5.57747 106.727 5.29099 108.582C5.00493 110.5 5.63525 112.328 6.96497 113.49C7.09361 113.596 7.24343 113.68 7.39339 113.785C6.61852 112.683 6.28937 111.259 6.51437 109.788C6.80084 107.933 7.89999 106.435 9.45221 105.744C10.5154 105.268 11.7718 105.005 12.902 104.997C15.3544 105.003 17.8075 105.114 20.1753 105.227C21.1993 105.284 22.2444 105.32 23.2684 105.377C23.439 105.376 24.228 105.371 24.228 105.371L24.7398 105.367C25.1023 105.365 25.4212 105.214 25.6539 104.936C25.8867 104.657 25.9698 104.316 25.9248 103.954L25.7035 102.721C25.5485 101.849 25.3939 101.019 25.2818 100.189C24.6993 95.8702 24.2239 91.6356 24.9429 87.4358C25.4767 84.2594 27.0637 82.3538 29.8099 81.6332C30.3208 81.5021 30.8535 81.4348 31.3866 81.4313C32.6234 81.4233 33.7774 81.7991 34.7201 82.4744C33.6659 81.0545 32.0184 80.2134 30.1633 80.2255Z" fill="#EBE300"/>
<path id="Vector_5" d="M41.8565 38.7518L42.3267 38.9191C42.6473 39.0448 42.9465 39.1493 43.2245 39.2752C43.3527 39.317 43.4386 39.4016 43.5455 39.4435C43.2644 38.8491 42.771 38.3839 42.0226 38.0694C41.7233 37.9436 41.4241 37.8391 41.1248 37.7133L41.1035 37.7134C41.1492 38.1815 41.429 38.5843 41.8565 38.7518Z" fill="#EBE300"/>
<path id="Vector_6" d="M24.9951 33.1973C25.3371 33.3229 25.6789 33.4058 25.9994 33.5102C26.5763 33.6768 27.0678 33.8227 27.4743 34.033C27.5814 34.0962 27.6671 34.1595 27.7741 34.2227C27.3436 33.6079 26.8499 33.1214 26.2722 32.827C25.8657 32.6167 25.3742 32.4708 24.7973 32.3042C24.605 32.2415 24.4127 32.1789 24.199 32.1164C24.2023 32.6275 24.525 33.0513 24.9951 33.1973Z" fill="#EBE300"/>
<path id="Vector_7" d="M36.9919 48.1747C37.1202 48.2165 37.2271 48.2584 37.3553 48.3001C37.7188 48.4468 38.1462 48.5931 38.637 48.6325C39.2557 48.6711 39.8744 48.7097 40.493 48.7269C41.4315 48.7634 42.306 48.779 43.16 48.9225C43.5656 48.9838 43.9289 49.1092 44.2499 49.2775C43.8178 48.4284 43.0467 47.9011 41.9579 47.7165C41.1039 47.573 40.2294 47.5574 39.2909 47.5209C38.6723 47.5036 38.0537 47.4864 37.4349 47.4265C36.9441 47.3871 36.538 47.2407 36.1745 47.094C36.1992 47.6049 36.5218 48.0287 36.9919 48.1747Z" fill="#EBE300"/>
<path id="Vector_8" d="M38.7418 31.9365C38.7203 31.9153 38.6775 31.8943 38.656 31.8732C38.5922 31.8949 38.5282 31.8953 38.4643 31.8957C38.4429 31.8959 38.187 31.8975 38.187 31.8975C36.0119 31.9117 34.5477 33.0286 33.1151 35.7212C32.7989 36.2982 32.3979 36.9397 31.6744 37.1787C31.3339 37.2874 31.0144 37.3533 30.7159 37.3553C30.4173 37.3572 30.1397 37.2951 29.9044 37.1902C30.3153 38.0607 31.0436 38.567 31.9393 38.5612C32.2378 38.5592 32.5574 38.5146 32.8978 38.3846C33.6001 38.167 34.0225 37.5254 34.3385 36.9271C35.771 34.2132 37.2353 33.1176 39.4105 33.1034L39.6877 33.1016C39.7517 33.1012 39.8156 33.1008 39.8795 33.0791C39.9009 33.1002 39.9437 33.1212 39.9652 33.1424C40.008 33.1634 40.0508 33.1844 40.0937 33.2267C39.8127 32.6536 39.3624 32.2732 38.7418 31.9365Z" fill="#EBE300"/>
<path id="Vector_9" d="M125.569 106.138C125.848 109.628 127.274 112.451 129.676 114.501C128 112.596 127.003 110.196 126.793 107.344C126.328 101.512 126.313 95.8262 126.725 90.4359C127.177 84.5343 128.247 78.5434 129.276 72.7445L129.399 71.9984C129.831 69.6106 131.033 67.5797 132.879 66.1196C134.449 64.8743 136.258 64.2237 138.134 64.2115C139.925 64.1998 141.571 64.7854 142.921 65.8413C141.438 64.0622 139.32 63.0112 136.932 63.0268C135.056 63.039 133.247 63.6896 131.677 64.9349C129.831 66.395 128.629 68.4259 128.197 70.8137L128.074 71.5598C127.045 77.3587 125.975 83.3283 125.523 89.2512C125.089 94.6204 125.105 100.306 125.569 106.138Z" fill="#EBE300"/>
<path id="Vector_10" d="M80.4273 24.7018C80.8284 24.0817 81.2509 23.4614 81.6088 22.7563C81.9878 22.0085 82.1936 20.8572 81.8041 19.9867C81.5875 19.477 81.1166 19.2033 80.6678 19.0571C80.9291 19.8859 80.7437 20.888 80.4069 21.5716C80.049 22.2767 79.6265 22.897 79.2254 23.5171C78.993 23.8594 78.7607 24.2016 78.5498 24.565C77.5793 26.1684 77.6101 27.6163 78.6645 29.0788L78.8581 29.333C79.2455 29.8842 79.6328 30.414 79.9778 30.9868C80.3227 31.5595 80.6898 32.2598 80.8865 33.0039C81.4109 34.9383 80.4198 36.6483 78.4618 37.2573C78.1425 37.3446 77.8869 37.3888 77.631 37.3905C77.4818 37.3915 77.3322 37.3499 77.1828 37.3295C77.4873 38.2432 78.1934 38.6007 78.8544 38.5964C79.1103 38.5947 79.3659 38.5504 79.6852 38.4632C81.6646 37.8753 82.6344 36.1654 82.1099 34.2097C81.9131 33.4657 81.5247 32.7655 81.2011 32.1926C80.8562 31.6199 80.4688 31.0687 80.0815 30.5389L79.8879 30.2846C78.8334 28.8221 78.8027 27.3743 79.7732 25.7708C79.9626 25.3863 80.195 25.0441 80.4273 24.7018Z" fill="#EBE300"/>
<path id="Vector_11" d="M146.744 79.7433C146.746 80.1053 146.898 80.4451 147.176 80.6562C147.391 80.8465 147.669 80.9298 147.967 80.9279C148.031 80.9275 148.095 80.9271 148.18 80.9052L151.12 80.375C153.143 80.0211 155.06 79.6679 156.977 79.3573L158.767 79.0475C161.067 78.6492 163.453 78.2504 165.797 77.9796C166.543 77.8896 167.289 77.8634 168.035 77.8586C168.995 77.8523 169.955 77.9099 170.894 78.0103C172.9 78.2528 174.546 78.9235 175.854 79.9584C174.457 78.2427 172.381 77.1488 169.671 76.8258C168.731 76.7041 167.772 76.6678 166.812 76.674C166.066 76.6789 165.298 76.7264 164.574 76.7951C162.23 77.0446 159.844 77.4647 157.543 77.863L155.754 78.1727C153.837 78.5047 151.899 78.8367 149.896 79.1904L146.957 79.7207C146.872 79.7425 146.808 79.7429 146.744 79.7433Z" fill="#EBE300"/>
<path id="Vector_12" d="M88.7213 83.4431C87.6441 85.0473 86.8468 87.0542 86.4763 89.1009C84.6867 99.185 85.3714 109.36 86.168 117.084C86.3044 118.383 86.5049 119.702 86.7272 121.084C86.8384 121.786 86.9496 122.488 87.0612 123.254C87.1279 123.68 86.96 124.085 86.6419 124.364C86.4298 124.536 86.1533 124.644 85.876 124.646C85.7481 124.647 85.62 124.626 85.4705 124.585C84.7652 124.355 84.166 124.018 83.6302 123.617C84.3403 124.592 85.3687 125.331 86.6938 125.791C86.8221 125.832 86.9502 125.853 87.0994 125.852C87.3766 125.85 87.6533 125.763 87.8653 125.57C88.1833 125.291 88.3513 124.885 88.2846 124.46C88.1731 123.715 88.0618 122.992 87.9506 122.29C87.7283 120.907 87.5279 119.61 87.3914 118.29C86.5947 110.565 85.9101 100.391 87.6997 90.3067C88.0701 88.2387 88.8674 86.2318 89.9446 84.649C91.1698 82.8522 93.1035 81.7962 95.2359 81.7823C96.7712 81.7723 98.2249 82.3165 99.4251 83.2457C98.0706 81.5509 96.1236 80.5627 94.0125 80.5764C91.8803 80.6116 89.9464 81.6464 88.7213 83.4431Z" fill="#EBE300"/>
<path id="Vector_13" d="M176 108.961C172.673 105.575 168.35 103.282 162.948 102.189C160.641 101.714 158.23 101.496 155.607 101.513C153.667 101.525 151.621 101.667 149.341 101.937L148.936 101.982C147.806 102.117 147.061 102.207 146.485 102.211C146.186 102.213 145.866 102.194 145.546 102.089C145.633 102.344 145.741 102.599 145.956 102.811C146.471 103.34 147.154 103.399 147.708 103.396C148.284 103.392 149.03 103.302 150.159 103.167L150.564 103.121C152.844 102.851 154.89 102.71 156.831 102.697C159.475 102.68 161.865 102.899 164.171 103.374C168.911 104.344 172.847 106.234 176 108.961Z" fill="#EBE300"/>
<path id="Vector_14" d="M113.282 23.6147C113.734 24.208 114.122 24.8869 114.404 25.673C116.1 30.5598 116.26 35.5418 114.842 40.4488C113.924 43.6064 111.123 45.7542 107.86 45.7754C106.368 45.7851 104.936 45.2834 103.757 44.418C103.972 44.6721 104.145 44.9478 104.402 45.1804C105.668 46.3434 107.335 46.9714 109.062 46.9601C112.325 46.9389 115.147 44.791 116.044 41.6335C117.462 36.7265 117.301 31.7445 115.606 26.8577C115.128 25.4553 114.31 24.3533 113.282 23.6147Z" fill="#EBE300"/>
<path id="Vector_15" d="M104.543 122.565L105.035 122.839C105.228 122.944 105.42 122.985 105.612 122.984C106.017 122.982 106.4 122.787 106.632 122.424C106.801 122.167 106.97 121.932 107.161 121.696C107.647 121.054 108.197 120.327 108.425 119.431C108.862 117.788 108.958 116.105 108.991 114.636C109.025 113.315 109.038 111.995 109.029 110.675C109.02 109.269 109.033 107.885 109.087 106.479C109.142 105.095 109.326 103.837 109.66 102.77C110.287 100.722 111.643 99.4779 113.645 99.0603C114.05 98.9724 114.455 98.9272 114.817 98.9248C115.969 98.9174 117.016 99.2725 117.98 100.012C117.895 99.927 117.83 99.8209 117.744 99.7363C116.52 98.3814 115.151 97.7089 113.594 97.719C113.21 97.7215 112.826 97.7666 112.422 97.8544C110.42 98.2507 109.085 99.5158 108.437 101.564C108.103 102.631 107.919 103.868 107.864 105.273C107.809 106.679 107.818 108.063 107.806 109.469C107.815 110.789 107.802 112.109 107.768 113.43C107.713 114.9 107.639 116.582 107.202 118.225C106.952 119.121 106.402 119.849 105.937 120.491C105.747 120.726 105.578 120.983 105.409 121.218C105.177 121.582 104.794 121.776 104.389 121.778C104.24 121.779 104.069 121.717 103.919 121.654C104.007 122.058 104.201 122.397 104.543 122.565Z" fill="#EBE300"/>
<path id="Vector_16" d="M102.773 30.8809C102.988 31.0712 103.266 31.1759 103.564 31.1739C103.607 31.1737 104.14 31.1063 104.14 31.1063C104.417 31.0832 104.651 31.0391 104.907 31.0161L105.951 30.9241C106.996 30.8322 108.04 30.7402 109.085 30.7121L109.106 30.7119C109.746 30.7078 110.28 30.7895 110.707 30.8719C111.24 30.9749 111.69 31.1636 112.096 31.3952C111.557 30.5256 110.679 29.9138 109.483 29.6873C109.056 29.6049 108.523 29.5232 107.883 29.5273L107.862 29.5275C106.817 29.5769 105.773 29.6689 104.728 29.7395L103.684 29.8315C103.428 29.8545 103.193 29.8773 102.917 29.9217C102.917 29.9217 102.405 29.9889 102.341 29.9893C102.341 30.0106 102.341 30.0319 102.342 30.0532C102.365 30.3512 102.516 30.6697 102.773 30.8809Z" fill="#EBE300"/>
<path id="Vector_17" d="M49.0263 85.2986C48.216 85.3039 47.3854 85.4797 46.556 85.8258C43.0255 87.2755 39.9867 92.1931 40.1831 96.1527C40.2579 97.8132 41.0128 99.1286 42.1906 99.8876C41.7169 99.1879 41.4342 98.338 41.385 97.3374C41.1888 93.3991 44.2276 88.4815 47.7579 87.0105C48.5874 86.6644 49.4179 86.4886 50.2282 86.4833C51.3797 86.4758 52.4268 86.8097 53.2622 87.3792C52.2941 86.0866 50.7962 85.2871 49.0263 85.2986Z" fill="#EBE300"/>
<path id="Vector_18" d="M32.6139 129.103C32.4246 126.229 32.9599 123.287 34.2402 120.127C34.4292 119.678 34.555 119.358 34.6597 119.059C34.7226 118.889 34.7415 118.526 34.7404 118.356C34.6936 117.717 34.1566 117.125 33.5169 117.129L33.5171 117.15C33.5395 117.32 33.4993 117.704 33.4363 117.853C33.3317 118.152 33.2058 118.472 33.0168 118.921C31.7365 122.081 31.2012 125.023 31.3905 127.897C31.6276 131.558 32.9899 134.445 35.4128 136.474C33.7797 134.568 32.8254 132.104 32.6139 129.103Z" fill="#EBE300"/>
<path id="Vector_19" d="M1.69422 139.163C0.871147 137.21 1.06942 134.909 2.22893 132.857C3.17757 131.168 4.74737 129.902 7.15048 128.885C10.6594 127.393 13.443 125.863 15.5582 123.208C16.2986 122.288 16.9321 121.326 17.6291 120.299C17.9459 119.828 18.2838 119.315 18.643 118.802C18.8965 118.438 18.9362 117.991 18.7418 117.608C18.5474 117.226 18.1831 116.952 17.7564 116.912L17.6284 116.913C17.6301 117.169 17.589 117.403 17.4411 117.617C17.0819 118.13 16.7439 118.622 16.4272 119.114C15.7302 120.141 15.0754 121.103 14.3563 122.024C12.2411 124.678 9.45747 126.208 5.94856 127.7C3.54546 128.717 1.97565 129.984 1.02702 131.672C-0.132496 133.724 -0.309441 136.025 0.492304 137.979C0.925578 139.019 1.63496 139.888 2.53514 140.585C2.19105 140.14 1.91078 139.673 1.69422 139.163Z" fill="#EBE300"/>
<path id="Vector_20" d="M7.3224 17.7032C6.7843 16.9401 6.50113 16.0263 6.51566 14.9827C6.54292 12.6188 8.06606 10.735 10.3025 10.3158C12.6453 9.87464 15.1175 9.6456 17.4833 9.43854C18.2718 9.36953 19.0817 9.30037 19.8703 9.23135C21.2769 9.09442 22.684 9.04267 24.0061 9.03407C25.2427 9.00472 26.0489 8.36063 26.3397 7.16622C26.7343 5.54523 27.2992 3.88055 28.6352 2.72193C29.7803 1.73491 31.0777 1.21538 32.5064 1.20608C33.1675 1.20178 33.8719 1.30367 34.577 1.51203C35.0684 1.65789 35.5176 1.86792 35.9029 2.09965C35.3216 1.25164 34.4858 0.618233 33.3536 0.30618C32.6272 0.0979597 31.9441 -0.00406817 31.2831 0.000235315C29.8544 0.0095364 28.5568 0.507767 27.4118 1.51608C26.0759 2.67471 25.5109 4.33939 25.1163 5.96037C24.8255 7.15478 24.0194 7.79887 22.7827 7.82822C21.4607 7.85812 20.0535 7.88858 18.6469 8.0255C17.8797 8.09438 17.0698 8.16354 16.2812 8.23256C13.8943 8.46105 11.4433 8.66866 9.1004 9.10981C6.86401 9.52897 5.34087 11.4128 5.31361 13.7768C5.28191 15.4593 5.99448 16.8175 7.3224 17.7032Z" fill="#EBE300"/>
<path id="Vector_21" d="M17.6517 51.6867C17.6799 52.7513 18.2183 53.557 19.181 54.0192C19.0082 53.6796 18.8992 53.3183 18.875 52.8713C18.8219 51.2744 19.6467 50.2043 21.2009 49.8108C22.372 49.5264 23.6081 49.4118 24.9296 49.2968C25.3984 49.2511 25.8674 49.2268 26.315 49.1813C28.1478 48.999 28.4177 47.8685 28.3691 46.9531C28.3223 46.3146 27.786 45.8282 27.1462 45.8324C27.1948 46.7478 26.8819 47.8146 25.0917 47.9967C24.6228 48.0423 24.1753 48.0878 23.7063 48.1122C22.4061 48.2271 21.1699 48.3203 19.9776 48.6262C18.4232 48.9984 17.5986 50.0898 17.6517 51.6867Z" fill="#EBE300"/>
<path id="Vector_22" d="M64.5011 18.6938C63.2492 16.3808 63.426 14.0585 65.0108 11.8122C65.9193 10.5073 67.2994 9.58263 69.2994 8.88817C72.2144 7.88963 74.9194 7.38224 77.5423 7.36516C79.5041 7.35239 81.4464 7.61658 83.3052 8.15815C85.1853 8.69958 86.7044 9.4776 87.9265 10.4918C86.5726 8.8822 84.6457 7.70223 82.0819 6.97359C80.2231 6.43203 78.2808 6.16784 76.319 6.18061C73.6748 6.19782 70.991 6.68378 68.0762 7.70362C66.0548 8.39822 64.696 9.32275 63.7875 10.6276C62.2028 12.8739 62.0473 15.1961 63.2779 17.5092C63.7527 18.3792 64.3328 19.0356 65.0395 19.4995C64.8458 19.2239 64.6523 18.9909 64.5011 18.6938Z" fill="#EBE300"/>
<path id="Vector_23" d="M136.936 161.899C134.957 156.013 138.135 149.498 144.028 147.351C145.623 146.766 147.37 146.499 149.203 146.231C149.799 146.142 150.396 146.053 150.992 145.943C151.61 145.832 152.249 145.828 152.953 145.802C153.294 145.8 153.614 145.777 153.955 145.774C158.389 145.533 161.876 143.998 164.311 141.235C167.846 137.23 168.004 131.969 167.794 129.181C167.537 125.775 166.24 123.079 164.01 121.241C165.493 122.978 166.382 125.25 166.57 127.975C166.78 130.763 166.601 136.024 163.087 140.029C160.653 142.792 157.166 144.327 152.732 144.569C152.391 144.592 152.071 144.594 151.73 144.596C151.047 144.622 150.386 144.627 149.769 144.737C149.172 144.847 148.576 144.936 147.979 145.025C146.147 145.314 144.422 145.581 142.805 146.145C136.911 148.292 133.734 154.829 135.713 160.693C136.409 162.776 137.571 164.493 139.18 165.845C138.213 164.723 137.458 163.408 136.936 161.899Z" fill="#EBE300"/>
<path id="Vector_24" d="M67.058 123.193C66.6186 117.936 67.3084 112.522 69.1069 107.08C69.5881 105.651 70.2828 104.262 71.1709 103.106C72.3758 101.48 73.9059 100.661 75.6971 100.649C76.1236 100.646 76.5504 100.686 77.02 100.768C77.8528 100.933 78.5372 101.248 79.1371 101.67C78.3837 100.589 77.2913 99.8508 75.818 99.5622C75.3696 99.48 74.9216 99.4403 74.4951 99.4431C72.7038 99.4547 71.1738 100.274 69.9689 101.9C69.102 103.056 68.386 104.445 67.9049 105.874C66.1063 111.316 65.4165 116.73 65.8559 121.987C66.3877 128.329 68.552 133.213 72.3271 136.574C69.299 133.315 67.5212 128.833 67.058 123.193Z" fill="#EBE300"/>
<path id="Vector_25" d="M124.913 133.08C125.008 131.291 125.675 128.923 128.398 127.947C130.398 127.231 132.74 126.683 135.766 126.259C139.814 125.679 145.162 124.984 150.618 124.565C151.066 124.541 151.514 124.517 151.983 124.514C153.71 124.502 155.503 124.704 157.211 125.118C158.172 125.346 159.05 125.809 159.821 126.422C158.854 125.193 157.526 124.286 156.009 123.934C154.301 123.54 152.508 123.318 150.781 123.329C150.333 123.332 149.864 123.356 149.416 123.38C143.981 123.778 138.633 124.494 134.564 125.074C131.538 125.499 129.217 126.025 127.196 126.762C124.473 127.738 123.806 130.085 123.711 131.895C123.618 133.94 124.374 135.511 125.896 136.609C125.186 135.634 124.837 134.465 124.913 133.08Z" fill="#EBE300"/>
<path id="Vector_26" d="M2.41897 60.4953C2.8719 61.2803 3.47341 61.9578 4.18057 62.4856C3.98699 62.2313 3.81474 61.9769 3.64234 61.7011C2.73647 60.1312 2.23368 58.2392 2.04687 55.749C1.50845 48.3844 2.51243 42.0959 5.1419 36.5421C8.10798 30.2834 13.0918 26.0558 19.9452 24.0095C21.7117 23.4869 21.9376 22.1438 22.1011 21.0567C22.1627 20.6943 22.0533 20.2691 21.7956 19.994C21.5594 19.74 21.2384 19.5717 20.8972 19.5739L20.8759 19.5741C20.8765 19.6592 20.8985 19.7656 20.899 19.8508C20.7142 20.938 20.5095 22.2596 18.7431 22.8035C11.8898 24.8498 6.90579 29.0561 3.93985 35.3361C1.31038 40.8899 0.285076 47.1786 0.844818 54.543C1.03163 57.0333 1.53442 58.9252 2.41897 60.4953Z" fill="#EBE300"/>
<path id="Vector_27" d="M26.7206 59.1233C26.9642 60.5059 27.6963 61.5872 28.7242 62.2407C28.358 61.6894 28.0767 61.0524 27.944 60.3292C27.8336 59.7549 27.8086 59.1801 27.8048 58.6051C27.7522 57.0722 27.4493 56.414 26.4239 56.1438C26.5115 56.484 26.5567 56.8883 26.5815 57.4205C26.5851 57.9742 26.6102 58.549 26.7206 59.1233Z" fill="#EBE300"/>
<path id="Vector_28" d="M6.1719 93.2227C6.52322 94.775 7.66342 96.3009 9.10024 97.5267C8.26233 96.5738 7.63697 95.5131 7.374 94.4288C6.97948 92.7916 7.3316 91.1921 8.3257 89.9292C9.29874 88.709 10.7443 87.9968 12.3223 87.9865C12.8128 87.9833 13.325 88.0439 13.8378 88.1896C15.1623 88.543 16.4681 89.3012 17.5834 90.2735C16.2298 88.7277 14.4515 87.4616 12.6143 86.9837C12.123 86.8591 11.6107 86.7773 11.0989 86.7806C9.52084 86.7909 8.07532 87.5031 7.10227 88.7233C6.10818 89.9862 5.77738 91.5855 6.1719 93.2227Z" fill="#EBE300"/>
<path id="Vector_29" d="M39.0099 105.935L41.8254 106.023C44.2995 106.092 46.859 106.16 49.3552 106.336C50.6352 106.413 51.9167 106.724 53.0499 107.185C53.2637 107.269 53.4351 107.395 53.6279 107.522C53.2396 106.843 52.6604 106.314 51.8479 105.979C50.7146 105.518 49.4332 105.228 48.1531 105.13C45.6569 104.954 43.0975 104.886 40.6233 104.817L37.8079 104.729C37.3599 104.71 36.976 104.692 36.6344 104.63C36.6785 104.864 36.7652 105.076 36.9157 105.267C37.4102 105.881 38.0927 105.898 39.0099 105.935Z" fill="#EBE300"/>
<path id="Vector_30" d="M45.7452 128.336C45.9798 128.334 46.2355 128.311 46.491 128.246C47.79 127.96 49.1512 127.419 50.5108 126.622C52.2954 125.589 53.5934 125.154 54.8942 125.146C55.278 125.143 55.6621 125.183 56.0465 125.266C56.8793 125.431 57.6278 125.767 58.2705 126.21C57.4317 125.129 56.2751 124.349 54.8231 124.06C54.4387 123.978 54.0546 123.937 53.6708 123.94C52.37 123.948 51.0507 124.383 49.2875 125.417C47.9065 126.213 46.5666 126.755 45.2676 127.04C45.012 127.084 44.7564 127.128 44.5218 127.13C44.01 127.133 43.5826 126.987 43.176 126.777C43.7154 127.731 44.615 128.343 45.7452 128.336Z" fill="#EBE300"/>
<path id="Vector_31" d="M22.7313 32.6797C22.6028 32.5954 22.4321 32.5752 22.2827 32.5549C22.3057 32.8103 22.2647 33.0661 22.1169 33.3013C21.5046 34.2423 21.4898 35.2433 22.0321 36.6453C22.2705 37.24 21.9764 37.9234 21.4023 38.1827L21.1897 38.2905C21.0197 38.3768 20.8708 38.4417 20.7218 38.4852C19.1262 39.0706 18.3652 40.0978 18.3956 41.5031C18.4461 42.6953 18.9633 43.5225 19.9473 43.9846C19.7528 43.6025 19.6223 43.1988 19.6189 42.6877C19.567 41.2612 20.3495 40.2552 21.9451 39.6698C22.0941 39.6263 22.2428 39.5401 22.413 39.4751L22.6256 39.3673C23.1997 39.108 23.4938 38.4246 23.2554 37.8299C22.7131 36.4279 22.7492 35.4267 23.3402 34.4859C23.509 34.2079 23.5709 33.8881 23.5048 33.5691C23.4388 33.2501 23.2451 32.9745 22.9667 32.806L22.7313 32.6797Z" fill="#EBE300"/>
<path id="Vector_32" d="M38.1347 7.51531C38.1813 8.13256 38.6748 8.59784 39.2935 8.6364C39.2935 8.6364 42.6424 8.76366 43.7303 8.82046C46.2259 8.91069 48.8281 9.00023 51.3458 9.19678C52.4552 9.27474 53.3955 9.58804 54.1452 10.0942C53.2842 8.86474 51.9361 8.14949 50.1224 7.99094C47.6048 7.79438 45.0025 7.70485 42.5069 7.61462C41.4618 7.57883 38.4115 7.44963 38.1129 7.45157C38.1342 7.45143 38.1344 7.47272 38.1347 7.51531Z" fill="#EBE300"/>
<path id="Vector_33" d="M39.1188 21.1163C37.9235 20.9537 36.7075 20.8765 35.5127 20.7778C34.9793 20.7387 34.4459 20.6995 33.9125 20.6604C33.9129 20.7243 33.892 20.7883 33.9138 20.8521C34.0025 21.3839 34.4531 21.8068 35.0078 21.8458C35.5838 21.8846 36.16 21.9448 36.736 21.9836C37.9521 22.0609 39.1469 22.1596 40.3422 22.3222C46.3398 23.1349 50.8519 25.0647 54.4768 28.2779C54.3264 28.1085 54.1973 27.939 54.0471 27.7909C50.2913 24.11 45.5646 21.99 39.1188 21.1163Z" fill="#EBE300"/>
</g>
</svg>
